<svg width="128" height="128" viewBox="0 0 128 128" fill="none" xmlns="http://www.w3.org/2000/svg">
<path fill-rule="evenodd" clip-rule="evenodd" d="M106.601 82.9887C101.553 87.6891 93.9031 98.288 93.9031 105.838C93.9031 112.488 98.7535 118.236 106.45 118.238C113.85 118.238 119 112.336 119 105.838C119 99.9392 114.553 94.6389 108.553 94.6389C107.451 94.6389 106.302 94.8389 105.402 95.2388L105.302 95.1388C106.281 93.7449 107.822 92.0528 109.33 90.3957C110.367 89.2578 111.388 88.1364 112.202 87.1392C112.801 86.3894 113.251 85.7896 113.251 85.0898C113.251 83.2886 111.1 81.4391 109.702 81.4391C109.302 81.4391 108.751 81.4391 108.201 81.789L108.201 81.789C107.601 82.1889 107.001 82.5888 106.601 82.9887ZM106.452 111.038C103.452 111.038 101.703 108.637 101.703 105.838C101.703 102.888 103.602 100.637 106.452 100.637C109.602 100.637 111.202 103.188 111.202 105.838C111.202 108.737 109.302 111.038 106.452 111.038ZM78.799 88.8936H81.7483V113.992C81.7483 116.493 83.3479 117.891 85.4973 117.891C87.6484 117.891 89.248 116.493 89.248 113.992V85.5429C89.248 83.5434 88.0483 81.9938 85.8972 81.9938H78.799C76.6496 81.9938 75.3999 83.695 75.3999 85.4445C75.3999 87.1441 76.3996 88.8936 78.799 88.8936Z" fill="#E0E9FB"/>
<path fill-rule="evenodd" clip-rule="evenodd" d="M116.106 84.3458C115.873 82.6907 114.903 81.3495 114.02 80.4973C113.046 79.5583 111.471 78.5324 109.702 78.5324L109.649 78.5323C109.193 78.5305 107.915 78.5256 106.641 79.3368L106.615 79.3534L106.589 79.3705L106.495 79.4331L106.495 79.4332C105.982 79.7739 105.194 80.2985 104.589 80.8916L104.554 80.9239V52.9249L70.6028 70.8713C70.2027 71.0828 69.7959 71.2762 69.3834 71.4515V109.231L78.8418 104.232V113.992C78.8418 115.074 79.0451 116.116 79.4655 117.053L70.6028 121.738C65.9286 124.209 60.3351 124.209 55.6609 121.738L16.9674 101.285C12.4715 98.9082 10.1514 94.5652 10.0072 90.1591L10.0874 90.1591L10.0874 40.3811C9.50901 35.3462 11.8024 30.0206 16.9674 27.2904L55.6609 6.83714C60.3352 4.36638 65.9286 4.36638 70.6028 6.83715L109.296 27.2904C114.449 30.0138 116.743 35.3197 116.181 40.3436V84.3458H116.106ZM21.714 39.3553C21.8292 39.6739 22.0581 39.9579 22.4008 40.1391L61.0944 60.5923C62.3691 61.2662 63.8946 61.2662 65.1694 60.5923L103.863 40.1391C104.21 39.9557 104.44 39.6668 104.554 39.3434V39.2924H104.571C104.766 38.6642 104.53 37.9219 103.863 37.5693L65.1694 17.1161C63.8946 16.4423 62.3691 16.4423 61.0944 17.1161L22.4008 37.5693C21.7338 37.9219 21.4978 38.6642 21.6929 39.2924H21.714V39.3553ZM21.714 52.9271L55.6609 70.8713C56.3419 71.2313 57.0424 71.5388 57.7568 71.7939V109.695L22.4008 91.0058C22.0357 90.8127 21.7997 90.503 21.6929 90.1591L21.714 90.1591V52.9271Z" fill="#A7AFBC"/>
</svg>
